<svg width="151" height="159" viewBox="0 0 151 159" fill="none" xmlns="http://www.w3.org/2000/svg">
<g clip-path="url(#clip0_4_7)">
<path d="M52.095 3.56756C52.3826 2.53733 52.9794 1.63292 53.796 0.989775C54.6127 0.346632 55.6052 -0.000627915 56.625 8.52356e-07H94.375C95.1223 0.000598174 95.8588 0.188077 96.5238 0.547004C97.1888 0.90593 97.7634 1.42604 98.2002 2.06452C98.637 2.70299 98.9235 3.44158 99.0362 4.21947C99.1489 4.99736 99.0845 5.79231 98.8484 6.53888L82.0496 59.625H117.969C118.852 59.6244 119.718 59.885 120.468 60.3773C121.218 60.8695 121.822 61.5736 122.21 62.4093C122.599 63.2451 122.757 64.1789 122.666 65.1045C122.575 66.03 122.239 66.9101 121.697 67.6446L55.6341 157.082C54.9573 158.003 53.995 158.644 52.9151 158.894C51.8352 159.144 50.7063 158.986 49.7254 158.449C48.7445 157.912 47.9738 157.029 47.5479 155.955C47.122 154.88 47.068 153.683 47.3951 152.57L64.3921 94.4062H33.0313C32.2976 94.4067 31.574 94.227 30.9179 93.8815C30.2617 93.536 29.6911 93.0341 29.2514 92.4158C28.8116 91.7974 28.5149 91.0796 28.3847 90.3194C28.2544 89.5592 28.2944 88.7775 28.5013 88.0363L52.095 3.56756ZM60.1546 9.9375L39.3355 84.4688H70.7812C71.5197 84.4686 72.2479 84.651 72.9072 85.0011C73.5666 85.3513 74.1387 85.8596 74.5775 86.485C75.0163 87.1104 75.3096 87.8355 75.4337 88.6021C75.5579 89.3686 75.5095 90.1551 75.2924 90.8983L63.9862 129.585L108.324 69.5625H75.5C74.7527 69.5619 74.0162 69.3744 73.3512 69.0155C72.6862 68.6566 72.1116 68.1365 71.6748 67.498C71.238 66.8595 70.9515 66.1209 70.8388 65.343C70.7261 64.5651 70.7905 63.7702 71.0266 63.0236L87.8254 9.9375H60.1546Z" fill="#00A3FF"/>
</g>
<defs>
<clipPath id="clip0_4_7">
<rect width="151" height="159" fill="white"/>
</clipPath>
</defs>
</svg>
