<svg width="512" height="512" viewBox="0 0 512 512" fill="none" xmlns="http://www.w3.org/2000/svg">
<g clip-path="url(#clip0_4_2)">
<path d="M227.095 179.568C227.383 178.537 227.979 177.633 228.796 176.99C229.613 176.347 230.605 175.999 231.625 176H269.375C270.122 176.001 270.859 176.188 271.524 176.547C272.189 176.906 272.763 177.426 273.2 178.065C273.637 178.703 273.924 179.442 274.036 180.219C274.149 180.997 274.085 181.792 273.848 182.539L257.05 235.625H292.969C293.852 235.624 294.718 235.885 295.468 236.377C296.218 236.87 296.822 237.574 297.21 238.409C297.599 239.245 297.757 240.179 297.666 241.104C297.575 242.03 297.239 242.91 296.697 243.645L230.634 333.082C229.957 334.003 228.995 334.644 227.915 334.894C226.835 335.144 225.706 334.986 224.725 334.449C223.744 333.912 222.974 333.029 222.548 331.955C222.122 330.88 222.068 329.683 222.395 328.57L239.392 270.406H208.031C207.298 270.407 206.574 270.227 205.918 269.882C205.262 269.536 204.691 269.034 204.251 268.416C203.812 267.797 203.515 267.08 203.385 266.319C203.254 265.559 203.294 264.777 203.501 264.036L227.095 179.568ZM235.155 185.938L214.336 260.469H245.781C246.52 260.469 247.248 260.651 247.907 261.001C248.567 261.351 249.139 261.86 249.577 262.485C250.016 263.11 250.31 263.836 250.434 264.602C250.558 265.369 250.509 266.155 250.292 266.898L238.986 305.585L283.324 245.562H250.5C249.753 245.562 249.016 245.374 248.351 245.015C247.686 244.657 247.112 244.136 246.675 243.498C246.238 242.86 245.951 242.121 245.839 241.343C245.726 240.565 245.79 239.77 246.027 239.024L262.825 185.938H235.155Z" fill="#00A3FF"/>
</g>
<path d="M56.56 303C54.96 303 53.68 302.56 52.72 301.68C51.84 300.8 51.4 299.56 51.4 297.96C51.4 296.76 51.76 295.72 52.48 294.84L108.76 225.36L108.04 224.76L104.68 228.72H62.8C59.92 228.72 57.72 227.92 56.2 226.32C54.68 224.64 53.92 222.2 53.92 219H116.68C120.12 219 121.84 220.68 121.84 224.04C121.84 225.24 121.48 226.28 120.76 227.16L64.6 296.64L65.44 297.24L68.68 293.28H113.68C116.48 293.28 118.64 294.12 120.16 295.8C121.68 297.4 122.44 299.8 122.44 303H56.56ZM136.197 224.28C136.197 222.76 136.757 221.52 137.877 220.56C138.997 219.52 140.357 219 141.957 219H195.117C195.117 222.36 194.437 224.84 193.077 226.44C191.717 228.04 189.597 228.84 186.717 228.84H147.477V255.72H181.077C181.077 259.08 180.397 261.56 179.037 263.16C177.677 264.76 175.597 265.56 172.797 265.56H147.477V293.16H189.237C192.037 293.16 194.117 293.96 195.477 295.56C196.837 297.16 197.517 299.64 197.517 303H141.957C140.357 303 138.997 302.52 137.877 301.56C136.757 300.52 136.197 299.24 136.197 297.72V224.28ZM346.464 304.08C340.144 304.08 334.424 302.8 329.304 300.24C324.184 297.68 320.144 294.16 317.184 289.68C314.304 285.12 312.864 280.04 312.864 274.44V227.28C312.864 224.24 313.824 221.92 315.744 220.32C317.664 218.72 320.464 217.92 324.144 217.92V274.44C324.144 280.28 326.184 285 330.264 288.6C334.424 292.2 339.824 294 346.464 294C353.104 294 358.464 292.2 362.544 288.6C366.624 285 368.664 280.28 368.664 274.44V227.28C368.664 224.24 369.624 221.92 371.544 220.32C373.464 218.72 376.264 217.92 379.944 217.92V274.44C379.944 280.04 378.504 285.12 375.624 289.68C372.744 294.16 368.744 297.68 363.624 300.24C358.504 302.8 352.784 304.08 346.464 304.08ZM426.198 304.08C419.478 304.08 413.638 303.12 408.678 301.2C403.798 299.28 400.078 296.72 397.518 293.52C394.958 290.32 393.678 286.88 393.678 283.2C393.678 280.16 394.478 277.84 396.078 276.24C397.678 274.56 400.118 273.72 403.398 273.72C403.398 280.52 405.438 285.72 409.518 289.32C413.598 292.84 419.318 294.6 426.678 294.6C433.718 294.6 439.118 293.44 442.878 291.12C446.638 288.72 448.518 285.2 448.518 280.56C448.518 277.76 447.798 275.48 446.358 273.72C444.998 271.88 442.638 270.32 439.278 269.04C435.998 267.68 431.238 266.32 424.998 264.96C417.638 263.36 411.798 261.52 407.478 259.44C403.158 257.28 399.998 254.68 397.998 251.64C395.998 248.6 394.998 244.84 394.998 240.36C394.998 235.88 396.238 231.96 398.718 228.6C401.278 225.16 404.878 222.52 409.518 220.68C414.158 218.84 419.558 217.92 425.718 217.92C431.558 217.92 436.758 218.76 441.318 220.44C445.958 222.04 449.558 224.36 452.118 227.4C454.758 230.36 456.078 233.72 456.078 237.48C456.078 239.8 455.318 241.64 453.798 243C452.358 244.28 450.078 244.92 446.958 244.92C446.078 238.84 443.918 234.4 440.478 231.6C437.118 228.8 432.198 227.4 425.718 227.4C419.478 227.4 414.678 228.52 411.318 230.76C407.958 232.92 406.278 236 406.278 240C406.278 242.8 406.878 245.12 408.078 246.96C409.358 248.72 411.478 250.24 414.438 251.52C417.478 252.8 421.718 254.04 427.158 255.24C435.318 257 441.718 258.96 446.358 261.12C451.078 263.28 454.478 265.92 456.558 269.04C458.638 272.16 459.678 276 459.678 280.56C459.678 287.84 456.638 293.6 450.558 297.84C444.478 302 436.358 304.08 426.198 304.08Z" fill="#00A3FF"/>
<path d="M52.72 301.68L52.0129 302.387L52.0283 302.402L52.0443 302.417L52.72 301.68ZM52.48 294.84L53.254 295.473L53.2571 295.469L52.48 294.84ZM108.76 225.36L109.537 225.989L110.158 225.223L109.4 224.592L108.76 225.36ZM108.04 224.76L108.68 223.992L107.919 223.357L107.277 224.113L108.04 224.76ZM104.68 228.72V229.72H105.143L105.443 229.367L104.68 228.72ZM56.2 226.32L55.4585 226.991L55.4666 227L55.475 227.009L56.2 226.32ZM53.92 219V218H52.92V219H53.92ZM120.76 227.16L119.986 226.527L119.982 226.531L120.76 227.16ZM64.6 296.64L63.8223 296.011L63.1551 296.837L64.0188 297.454L64.6 296.64ZM65.44 297.24L64.8588 298.054L65.6209 298.598L66.214 297.873L65.44 297.24ZM68.68 293.28V292.28H68.2061L67.906 292.647L68.68 293.28ZM120.16 295.8L119.418 296.471L119.427 296.48L119.435 296.489L120.16 295.8ZM122.44 303V304H123.44V303H122.44ZM56.56 302C55.1502 302 54.1314 301.617 53.3957 300.943L52.0443 302.417C53.2286 303.503 54.7698 304 56.56 304V302ZM53.4271 300.973C52.7841 300.33 52.4 299.374 52.4 297.96H50.4C50.4 299.746 50.8959 301.27 52.0129 302.387L53.4271 300.973ZM52.4 297.96C52.4 296.977 52.6886 296.164 53.254 295.473L51.706 294.207C50.8314 295.276 50.4 296.543 50.4 297.96H52.4ZM53.2571 295.469L109.537 225.989L107.983 224.731L51.7029 294.211L53.2571 295.469ZM109.4 224.592L108.68 223.992L107.4 225.528L108.12 226.128L109.4 224.592ZM107.277 224.113L103.917 228.073L105.443 229.367L108.803 225.407L107.277 224.113ZM104.68 227.72H62.8V229.72H104.68V227.72ZM62.8 227.72C60.1064 227.72 58.2033 226.977 56.925 225.631L55.475 227.009C57.2367 228.863 59.7336 229.72 62.8 229.72V227.72ZM56.9415 225.649C55.6455 224.217 54.92 222.054 54.92 219H52.92C52.92 222.346 53.7145 225.063 55.4585 226.991L56.9415 225.649ZM53.92 220H116.68V218H53.92V220ZM116.68 220C118.252 220 119.246 220.384 119.851 220.975C120.453 221.563 120.84 222.52 120.84 224.04H122.84C122.84 222.2 122.368 220.637 121.249 219.545C120.134 218.456 118.548 218 116.68 218V220ZM120.84 224.04C120.84 225.023 120.551 225.836 119.986 226.527L121.534 227.793C122.409 226.724 122.84 225.457 122.84 224.04H120.84ZM119.982 226.531L63.8223 296.011L65.3777 297.269L121.538 227.789L119.982 226.531ZM64.0188 297.454L64.8588 298.054L66.0212 296.426L65.1812 295.826L64.0188 297.454ZM66.214 297.873L69.454 293.913L67.906 292.647L64.666 296.607L66.214 297.873ZM68.68 294.28H113.68V292.28H68.68V294.28ZM113.68 294.28C116.269 294.28 118.131 295.048 119.418 296.471L120.902 295.129C119.149 293.192 116.691 292.28 113.68 292.28V294.28ZM119.435 296.489C120.713 297.834 121.44 299.942 121.44 303H123.44C123.44 299.658 122.647 296.966 120.885 295.111L119.435 296.489ZM122.44 302H56.56V304H122.44V302ZM137.877 220.56L138.528 221.319L138.543 221.306L138.557 221.293L137.877 220.56ZM195.117 219H196.117V218H195.117V219ZM193.077 226.44L193.839 227.088L193.839 227.088L193.077 226.44ZM147.477 228.84V227.84H146.477V228.84H147.477ZM147.477 255.72H146.477V256.72H147.477V255.72ZM181.077 255.72H182.077V254.72H181.077V255.72ZM179.037 263.16L178.275 262.512L178.275 262.512L179.037 263.16ZM147.477 265.56V264.56H146.477V265.56H147.477ZM147.477 293.16H146.477V294.16H147.477V293.16ZM195.477 295.56L194.715 296.208L194.715 296.208L195.477 295.56ZM197.517 303V304H198.517V303H197.517ZM137.877 301.56L137.196 302.293L137.211 302.306L137.226 302.319L137.877 301.56ZM137.197 224.28C137.197 223.042 137.637 222.083 138.528 221.319L137.226 219.801C135.877 220.957 135.197 222.478 135.197 224.28H137.197ZM138.557 221.293C139.483 220.433 140.596 220 141.957 220V218C140.117 218 138.511 218.607 137.196 219.827L138.557 221.293ZM141.957 220H195.117V218H141.957V220ZM194.117 219C194.117 222.257 193.452 224.454 192.315 225.792L193.839 227.088C195.421 225.226 196.117 222.463 196.117 219H194.117ZM192.315 225.792C191.208 227.094 189.418 227.84 186.717 227.84V229.84C189.776 229.84 192.225 228.986 193.839 227.088L192.315 225.792ZM186.717 227.84H147.477V229.84H186.717V227.84ZM146.477 228.84V255.72H148.477V228.84H146.477ZM147.477 256.72H181.077V254.72H147.477V256.72ZM180.077 255.72C180.077 258.977 179.412 261.174 178.275 262.512L179.799 263.808C181.381 261.946 182.077 259.183 182.077 255.72H180.077ZM178.275 262.512C177.163 263.82 175.407 264.56 172.797 264.56V266.56C175.786 266.56 178.191 265.7 179.799 263.808L178.275 262.512ZM172.797 264.56H147.477V266.56H172.797V264.56ZM146.477 265.56V293.16H148.477V265.56H146.477ZM147.477 294.16H189.237V292.16H147.477V294.16ZM189.237 294.16C191.847 294.16 193.603 294.9 194.715 296.208L196.239 294.912C194.631 293.02 192.226 292.16 189.237 292.16V294.16ZM194.715 296.208C195.852 297.546 196.517 299.743 196.517 303H198.517C198.517 299.537 197.821 296.774 196.239 294.912L194.715 296.208ZM197.517 302H141.957V304H197.517V302ZM141.957 302C140.574 302 139.451 301.592 138.528 300.801L137.226 302.319C138.543 303.448 140.14 304 141.957 304V302ZM138.557 300.827C137.64 299.975 137.197 298.96 137.197 297.72H135.197C135.197 299.52 135.874 301.065 137.196 302.293L138.557 300.827ZM137.197 297.72V224.28H135.197V297.72H137.197ZM329.304 300.24L329.751 299.346L329.304 300.24ZM317.184 289.68L316.339 290.214L316.344 290.223L316.35 290.231L317.184 289.68ZM315.744 220.32L316.384 221.088L316.384 221.088L315.744 220.32ZM324.144 217.92H325.144V216.92H324.144V217.92ZM330.264 288.6L329.602 289.35L329.61 289.356L330.264 288.6ZM362.544 288.6L361.882 287.85L362.544 288.6ZM371.544 220.32L372.184 221.088L372.184 221.088L371.544 220.32ZM379.944 217.92H380.944V216.92H379.944V217.92ZM375.624 289.68L376.465 290.221L376.47 290.214L375.624 289.68ZM363.624 300.24L363.177 299.346L363.624 300.24ZM346.464 303.08C340.283 303.08 334.718 301.829 329.751 299.346L328.857 301.134C334.13 303.771 340.005 305.08 346.464 305.08V303.08ZM329.751 299.346C324.777 296.859 320.875 293.453 318.018 289.129L316.35 290.231C319.413 294.867 323.591 298.501 328.857 301.134L329.751 299.346ZM318.03 289.146C315.254 284.752 313.864 279.859 313.864 274.44H311.864C311.864 280.221 313.354 285.488 316.339 290.214L318.03 289.146ZM313.864 274.44V227.28H311.864V274.44H313.864ZM313.864 227.28C313.864 224.466 314.741 222.457 316.384 221.088L315.104 219.552C312.907 221.383 311.864 224.014 311.864 227.28H313.864ZM316.384 221.088C318.057 219.695 320.591 218.92 324.144 218.92V216.92C320.337 216.92 317.272 217.745 315.104 219.552L316.384 221.088ZM323.144 217.92V274.44H325.144V217.92H323.144ZM323.144 274.44C323.144 280.543 325.29 285.545 329.602 289.35L330.926 287.85C327.078 284.455 325.144 280.017 325.144 274.44H323.144ZM329.61 289.356C333.987 293.144 339.636 295 346.464 295V293C340.012 293 334.861 291.256 330.918 287.844L329.61 289.356ZM346.464 295C353.292 295 358.905 293.145 363.206 289.35L361.882 287.85C358.023 291.255 352.917 293 346.464 293V295ZM363.206 289.35C367.518 285.545 369.664 280.543 369.664 274.44H367.664C367.664 280.017 365.73 284.455 361.882 287.85L363.206 289.35ZM369.664 274.44V227.28H367.664V274.44H369.664ZM369.664 227.28C369.664 224.466 370.541 222.457 372.184 221.088L370.904 219.552C368.707 221.383 367.664 224.014 367.664 227.28H369.664ZM372.184 221.088C373.857 219.695 376.391 218.92 379.944 218.92V216.92C376.137 216.92 373.072 217.745 370.904 219.552L372.184 221.088ZM378.944 217.92V274.44H380.944V217.92H378.944ZM378.944 274.44C378.944 279.859 377.554 284.752 374.779 289.146L376.47 290.214C379.454 285.488 380.944 280.221 380.944 274.44H378.944ZM374.783 289.139C372.007 293.457 368.149 296.86 363.177 299.346L364.071 301.134C369.34 298.5 373.481 294.863 376.465 290.221L374.783 289.139ZM363.177 299.346C358.21 301.829 352.645 303.08 346.464 303.08V305.08C352.923 305.08 358.798 303.771 364.071 301.134L363.177 299.346ZM408.678 301.2L408.312 302.131L408.317 302.133L408.678 301.2ZM397.518 293.52L396.738 294.145L396.738 294.145L397.518 293.52ZM396.078 276.24L396.786 276.947L396.794 276.938L396.803 276.93L396.078 276.24ZM403.398 273.72H404.398V272.72H403.398V273.72ZM409.518 289.32L408.857 290.07L408.865 290.077L409.518 289.32ZM442.878 291.12L443.404 291.971L443.41 291.967L443.416 291.963L442.878 291.12ZM446.358 273.72L445.554 274.314L445.569 274.334L445.584 274.353L446.358 273.72ZM439.278 269.04L438.895 269.964L438.909 269.969L438.922 269.974L439.278 269.04ZM424.998 264.96L425.211 263.983L425.211 263.983L424.998 264.96ZM407.478 259.44L407.031 260.334L407.038 260.338L407.045 260.341L407.478 259.44ZM397.998 251.64L398.834 251.09L398.834 251.09L397.998 251.64ZM398.718 228.6L397.916 228.003L397.914 228.006L398.718 228.6ZM409.518 220.68L409.887 221.61L409.887 221.61L409.518 220.68ZM441.318 220.44L440.973 221.378L440.983 221.382L440.992 221.385L441.318 220.44ZM452.118 227.4L451.354 228.044L451.363 228.055L451.372 228.066L452.118 227.4ZM453.798 243L454.463 243.747L454.465 243.745L453.798 243ZM446.958 244.92L445.969 245.063L446.093 245.92H446.958V244.92ZM440.478 231.6L439.838 232.368L439.847 232.376L440.478 231.6ZM411.318 230.76L411.859 231.601L411.866 231.597L411.873 231.592L411.318 230.76ZM408.078 246.96L407.241 247.506L407.255 247.528L407.27 247.548L408.078 246.96ZM414.438 251.52L414.042 252.438L414.05 252.442L414.438 251.52ZM427.158 255.24L426.943 256.217L426.948 256.218L427.158 255.24ZM446.358 261.12L445.936 262.027L445.942 262.029L446.358 261.12ZM456.558 269.04L455.726 269.595L455.726 269.595L456.558 269.04ZM450.558 297.84L451.123 298.665L451.13 298.66L450.558 297.84ZM426.198 303.08C419.571 303.08 413.858 302.133 409.039 300.267L408.317 302.133C413.418 304.107 419.386 305.08 426.198 305.08V303.08ZM409.045 300.269C404.283 298.396 400.724 295.926 398.299 292.895L396.738 294.145C399.433 297.514 403.314 300.164 408.312 302.131L409.045 300.269ZM398.299 292.895C395.864 289.851 394.678 286.627 394.678 283.2H392.678C392.678 287.133 394.053 290.789 396.738 294.145L398.299 292.895ZM394.678 283.2C394.678 280.331 395.43 278.302 396.786 276.947L395.371 275.533C393.526 277.378 392.678 279.989 392.678 283.2H394.678ZM396.803 276.93C398.147 275.518 400.277 274.72 403.398 274.72V272.72C399.96 272.72 397.21 273.602 395.354 275.55L396.803 276.93ZM402.398 273.72C402.398 280.73 404.51 286.234 408.857 290.07L410.18 288.57C406.367 285.206 404.398 280.31 404.398 273.72H402.398ZM408.865 290.077C413.184 293.803 419.167 295.6 426.678 295.6V293.6C419.47 293.6 414.013 291.877 410.172 288.563L408.865 290.077ZM426.678 295.6C433.804 295.6 439.418 294.43 443.404 291.971L442.353 290.269C438.819 292.45 433.633 293.6 426.678 293.6V295.6ZM443.416 291.963C447.478 289.37 449.518 285.525 449.518 280.56H447.518C447.518 284.875 445.799 288.07 442.34 290.277L443.416 291.963ZM449.518 280.56C449.518 277.584 448.75 275.064 447.132 273.087L445.584 274.353C446.847 275.896 447.518 277.936 447.518 280.56H449.518ZM447.163 273.126C445.641 271.067 443.08 269.418 439.634 268.106L438.922 269.974C442.197 271.222 444.356 272.693 445.554 274.314L447.163 273.126ZM439.661 268.116C436.299 266.722 431.471 265.347 425.211 263.983L424.785 265.937C431.005 267.293 435.697 268.638 438.895 269.964L439.661 268.116ZM425.211 263.983C417.889 262.391 412.134 260.571 407.912 258.539L407.045 260.341C411.463 262.469 417.388 264.329 424.786 265.937L425.211 263.983ZM407.926 258.546C403.713 256.439 400.71 253.943 398.834 251.09L397.163 252.19C399.286 255.417 402.604 258.121 407.031 260.334L407.926 258.546ZM398.834 251.09C396.964 248.248 395.998 244.69 395.998 240.36H393.998C393.998 244.99 395.033 248.952 397.163 252.19L398.834 251.09ZM395.998 240.36C395.998 236.077 397.179 232.369 399.523 229.194L397.914 228.006C395.297 231.551 393.998 235.683 393.998 240.36H395.998ZM399.521 229.197C401.953 225.929 405.391 223.393 409.887 221.61L409.15 219.75C404.366 221.647 400.604 224.391 397.916 228.003L399.521 229.197ZM409.887 221.61C414.386 219.826 419.656 218.92 425.718 218.92V216.92C419.461 216.92 413.931 217.854 409.15 219.75L409.887 221.61ZM425.718 218.92C431.464 218.92 436.543 219.746 440.973 221.378L441.664 219.502C436.974 217.774 431.653 216.92 425.718 216.92V218.92ZM440.992 221.385C445.502 222.94 448.934 225.171 451.354 228.044L452.883 226.756C450.182 223.549 446.415 221.14 441.644 219.495L440.992 221.385ZM451.372 228.066C453.859 230.853 455.078 233.98 455.078 237.48H457.078C457.078 233.46 455.658 229.867 452.865 226.734L451.372 228.066ZM455.078 237.48C455.078 239.559 454.409 241.112 453.132 242.255L454.465 243.745C456.228 242.168 457.078 240.041 457.078 237.48H455.078ZM453.134 242.253C451.961 243.295 449.976 243.92 446.958 243.92V245.92C450.181 245.92 452.756 245.265 454.463 243.747L453.134 242.253ZM447.948 244.777C447.046 238.545 444.808 233.835 441.11 230.824L439.847 232.376C443.028 234.965 445.111 239.135 445.969 245.063L447.948 244.777ZM441.119 230.832C437.51 227.825 432.323 226.4 425.718 226.4V228.4C432.074 228.4 436.727 229.775 439.838 232.368L441.119 230.832ZM425.718 226.4C419.381 226.4 414.355 227.534 410.764 229.928L411.873 231.592C415.002 229.506 419.576 228.4 425.718 228.4V226.4ZM410.778 229.919C407.131 232.263 405.278 235.66 405.278 240H407.278C407.278 236.34 408.786 233.577 411.859 231.601L410.778 229.919ZM405.278 240C405.278 242.941 405.909 245.465 407.241 247.506L408.916 246.414C407.848 244.775 407.278 242.659 407.278 240H405.278ZM407.27 247.548C408.694 249.506 410.991 251.119 414.042 252.438L414.835 250.602C411.966 249.361 410.023 247.934 408.887 246.372L407.27 247.548ZM414.05 252.442C417.171 253.756 421.478 255.011 426.943 256.217L427.374 254.263C421.959 253.069 417.786 251.844 414.826 250.598L414.05 252.442ZM426.948 256.218C435.074 257.97 441.393 259.911 445.936 262.027L446.78 260.213C442.044 258.009 435.563 256.03 427.369 254.262L426.948 256.218ZM445.942 262.029C450.556 264.141 453.782 266.678 455.726 269.595L457.39 268.485C455.175 265.162 451.601 262.419 446.775 260.211L445.942 262.029ZM455.726 269.595C457.675 272.518 458.678 276.154 458.678 280.56H460.678C460.678 275.846 459.602 271.802 457.39 268.485L455.726 269.595ZM458.678 280.56C458.678 287.506 455.804 292.963 449.986 297.02L451.13 298.66C457.473 294.237 460.678 288.174 460.678 280.56H458.678ZM449.994 297.015C444.132 301.025 436.231 303.08 426.198 303.08V305.08C436.486 305.08 444.825 302.975 451.123 298.665L449.994 297.015Z" fill="#00A3FF"/>
<defs>
<clipPath id="clip0_4_2">
<rect width="151" height="159" fill="white" transform="translate(175 176)"/>
</clipPath>
</defs>
</svg>
